<svg id="home-24px" xmlns="http://www.w3.org/2000/svg" width="34.273" height="34.273" viewBox="0 0 34.273 34.273">
  <path id="Path_1" data-name="Path 1" d="M0,0H34.273V34.273H0Z" fill="none"/>
  <path id="Path_2" data-name="Path 2" d="M14.019,28.657V20.572h6.233v8.084a1.593,1.593,0,0,0,1.558,1.617h4.675a1.593,1.593,0,0,0,1.558-1.617V17.339h2.649a.806.806,0,0,0,.514-1.407L18.18,3.757a1.528,1.528,0,0,0-2.088,0L3.064,15.932a.81.81,0,0,0,.514,1.407H6.227V28.657a1.593,1.593,0,0,0,1.558,1.617H12.46A1.593,1.593,0,0,0,14.019,28.657Z" transform="translate(0 0)" fill="#797979"/>
</svg>
