<svg id="Layer_1" enable-background="new 0 0 512 512" height="80" viewBox="0 0 512 512" width="30" xmlns="http://www.w3.org/2000/svg"><g fill="white"><circle cx="188" cy="105" r="15"/><path d="m376 36.213v38.787h38.787z"/><path d="m188 150c-19.392 0-35.348 14.996-36.88 34h73.76c-1.532-19.004-17.488-34-36.88-34z"/><path d="m451.041 68.828v-53.828c0-8.284-6.716-15-15-15h-53.828z"/><path d="m451 105h-90c-8.284 0-15-6.716-15-15v-90h-270.041c-8.284 0-15 6.716-15 15v482c0 8.284 6.716 15 15 15h360.082c8.284 0 15-6.716 15-15v-392.002c-.014.001-.027.002-.041.002zm-330 82c0-23.401 12.068-44.026 30.298-56.012-5.217-7.346-8.298-16.312-8.298-25.988 0-24.813 20.187-45 45-45s45 20.187 45 45c0 9.677-3.081 18.642-8.298 25.989 18.23 11.985 30.298 32.61 30.298 56.011v12c0 8.284-6.716 15-15 15h-104c-8.284 0-15-6.716-15-15zm119.988 267h-104.988c-8.284 0-15-6.716-15-15s6.716-15 15-15h104.988c8.284 0 15 6.716 15 15s-6.716 15-15 15zm135.009-60h-239.997c-8.284 0-15-6.716-15-15s6.716-15 15-15h239.997c8.284 0 15 6.716 15 15s-6.716 15-15 15zm0-60h-239.997c-8.284 0-15-6.716-15-15s6.716-15 15-15h239.997c8.284 0 15 6.716 15 15s-6.716 15-15 15zm0-60h-239.997c-8.284 0-15-6.716-15-15s6.716-15 15-15h239.997c8.284 0 15 6.716 15 15s-6.716 15-15 15z"/></g></svg>